# AST/ASF file generated using VICON BodyLanguage
# -----------------------------------------------
:version 1.10
:name VICON
:units
  mass 1.0
  length 0.45
  angle deg
:documentation
   .ast/.asf automatically generated from VICON data using
   VICON BodyBuilder and BodyLanguage model FoxedUp or BRILLIANT.MOD
:root
   order TX TY TZ RX RY RZ
   axis XYZ
   position 0 0 0  
   orientation 0 0 0 
:bonedata
  begin
     id 1 
     name lhipjoint
     direction 0.576517 -0.752066 0.319413 
     length 2.45433 
     axis 0 0 0  XYZ
  end
  begin
     id 2 
     name lfemur
     direction 0.34202 -0.939693 0  
     length 7.54459  
     axis 0 0 20  XYZ
    dof rx ry rz
    limits (-160.0 20.0)
           (-70.0 70.0)
           (-60.0 70.0)
  end
  begin
     id 3 
     name ltibia
     direction 0.34202 -0.939693 0   
     length 7.73986   
     axis 0 0 20   XYZ
    dof rx
    limits (-10.0 170.0)
  end
  begin
     id 4 
     name lfoot
     direction 0.090693 -0.249177 0.964202   
     length 2.28437   
     axis -90 7.62852e-016 20   XYZ
    dof rx rz
    limits (-45.0 90.0)
           (-70.0 20.0)
  end
  begin
     id 5 
     name ltoes
     direction 1.5356e-011 -4.21928e-011 1   
     length 1.14243   
     axis -90 7.62852e-016 20   XYZ
    dof rx
    limits (-90.0 20.0)
  end
  begin
     id 6 
     name rhipjoint
     direction -0.573937 -0.753736 0.320122   
     length 2.44889  
     axis 0 0 0  XYZ 
  end
  begin
     id 7 
     name rfemur
     direction -0.34202 -0.939693 0   
     length 7.50166   
     axis 0 0 -20   XYZ
    dof rx ry rz
    limits (-160.0 20.0)
           (-70.0 70.0)
           (-70.0 60.0)
  end
  begin
     id 8 
     name rtibia
     direction -0.34202 -0.939693 0   
     length 7.54266   
     axis 0 0 -20   XYZ
    dof rx
    limits (-10.0 170.0)
 end
 begin
     id 9 
     name rfoot
     direction -0.114017 -0.31326 0.942798   
     length 2.34212  
     axis -90 -7.62852e-016 -20   XYZ
    dof rx rz
    limits (-45.0 90.0)
           (-20.0 70.0)
  end
  begin
     id 10 
     name rtoes
     direction -1.53557e-011 -4.21867e-011 1   
     length 1.16246   
     axis -90 -7.62852e-016 -20   XYZ
    dof rx
    limits (-90.0 20.0)
  end
  begin
     id 11 
     name lowerback
     direction -0.0228371 0.999155 -0.034167   
     length 2.0537   
     axis 0 0 0   XYZ
    dof rx ry rz
    limits (-20.0 45.0)
           (-30.0 30.0)
           (-30.0 30.0)
  end
  begin
     id 12 
     name upperback
     direction 0.0198981 0.999794 0.00389455   
     length 2.05302   
     axis 0 0 0   XYZ
    dof rx ry rz
    limits (-20.0 45.0)
           (-30.0 30.0)
           (-30.0 30.0)
  end
  begin
     id 13 
     name thorax
     direction 0.0304566 0.99935 0.0192987   
     length 2.05315   
     axis 0 0 0   XYZ
    dof rx ry rz
    limits (-20.0 45.0)
           (-30.0 30.0)
           (-30.0 30.0)
  end
  begin
     id 14 
     name lowerneck
     direction -0.0196762 0.99417 0.106017   
     length 1.82056   
     axis 0 0 0   XYZ
    dof rx ry rz
    limits (-20.0 45.0)
           (-30.0 30.0)
           (-30.0 30.0)
  end
  begin
     id 15 
     name upperneck
     direction 0.00517787 0.9802 -0.197944   
     length 1.83835   
     axis 0 0 0   XYZ
    dof rx ry rz
    limits (-20.0 45.0)
           (-30.0 30.0)
           (-30.0 30.0)
  end
  begin
     id 16
     name head
     direction 0.00211419 0.996945 -0.078081  
     length 1.85629  
     axis 0 0 0   XYZ
    dof rx ry rz
    limits (-20.0 45.0)
           (-30.0 30.0)
           (-30.0 30.0)
  end
  begin
     id 17 
     name lclavicle
     direction 0.930001 0.365811 -0.0357824  
     length 3.81961  
     axis 0 0 0   XYZ
    dof ry rz
    limits (-20.0 10.0)
           (0.0 20.0)
  end
  begin
     id 18 
     name lhumerus
     direction 1 -4.48968e-011 -3.06644e-027   
     length 5.14507   
     axis 180 -30 -90   XYZ
    dof rx ry rz
    limits (-60.0 90.0)
           (-90.0 90.0)
           (-90.0 90.0)
  end
  begin
     id 19
     name lradius
     direction 1 -4.48965e-011 9.06925e-028   
     length 3.50646   
     axis 180 -30 -90   XYZ
    dof rx
    limits (-10.0 170.0)
  end
  begin
     id 20
     name lwrist
     direction 1 -4.48957e-011 1.03922e-027   
     length 1.75323   
     axis -2.56395e-016 90 90   XYZ
    dof ry
    limits (-180.0 0.0)
 end
  begin
     id 21 
     name lhand
     direction 1 -4.48967e-011 2.08017e-027   
     length 0.629969   
     axis -1.32723e-015 90 90   XYZ
    dof rx rz
    limits (-90.0 90.0)
           (-45.0 45.0)
  end
  begin
     id 22 
     name lfingers
     direction 1 -4.49089e-011 4.20095e-027   
     length 0.507897   
     axis -2.6545e-015 90 90   XYZ
    dof rx
    limits (0.0 90.0)
  end
  begin
     id 23
     name lthumb
     direction 0.707107 -6.35001e-011 0.707107   
     length 0.729241   
     axis -90 45 5.05613e-014   XYZ
    dof rx rz
    limits (-45.0 45.0)
           (-45.0 45.0)
  end
  begin
     id 24 
     name rclavicle
     direction -0.881882 0.464123 -0.0829113   
     length 3.47515  
     axis 0 0 0   XYZ 
    dof ry rz
    limits (-10.0 20.0)
           (-20.0 0.0)
  end
  begin
     id 25 
     name rhumerus
     direction -1 -4.48961e-011 -1.55672e-027  
     length 5.232   
     axis 180 30 90   XYZ
    dof rx ry rz
    limits (-90.0 60.0)
           (-90.0 90.0)
           (-90.0 90.0)
  end
  begin
     id 26 
     name rradius
     direction -1 -4.48963e-011 6.18178e-029   
     length 3.65641   
     axis 180 30 90   XYZ
    dof rx
    limits (-10.0 170.0)
  end
  begin
     id 27 
     name rwrist
     direction -1 -4.48982e-011 1.04136e-027   
     length 1.8282   
     axis -2.56395e-016 -90 -90   XYZ
    dof ry
    limits (-180.0 0.0)
  end
  begin
     id 28
     name rhand
     direction -1 -4.48929e-011 2.07378e-027   
     length 0.656807   
     axis -1.32723e-015 -90 -90   XYZ
    dof rx rz
    limits (-90.0 90.0)
           (-45.0 45.0)
  end
  begin
     id 29
     name rfingers
     direction -1 -4.489e-011 4.13816e-027   
     length 0.529535   
     axis -2.6545e-015 -90 -90   XYZ
    dof rx
    limits (0.0 90.0)
  end
  begin
     id 30
     name rthumb
     direction -0.707107 -6.34843e-011 0.707107   
     length 0.760309   
     axis -90 -45 -5.05613e-014   XYZ
    dof rx rz
    limits (-45.0 45.0)
           (-45.0 45.0)
  end
:hierarchy
  begin
    root lhipjoint rhipjoint lowerback
    lhipjoint lfemur
    lfemur ltibia
    ltibia lfoot
    lfoot ltoes
    rhipjoint rfemur
    rfemur rtibia
    rtibia rfoot
    rfoot rtoes
    lowerback upperback
    upperback thorax
    thorax lowerneck lclavicle rclavicle
    lowerneck upperneck
    upperneck head
    lclavicle lhumerus
    lhumerus lradius
    lradius lwrist
    lwrist lhand lthumb
    lhand lfingers
    rclavicle rhumerus
    rhumerus rradius
    rradius rwrist
    rwrist rhand rthumb
    rhand rfingers
  end

#!OML:ASF H:\ManfredETheater\Project 1\Capture day 1\Session 1\subject.ASF
:FULLY-SPECIFIED
:DEGREES
1
root 6.16354 15.1595 42.5019 -150.973 0.198068 176.162
lowerback 20.2139 -2.16847 -2.39546
upperback -0.277509 -3.3023 2.81414
thorax -11.3744 -1.3842 5.49016
lowerneck -22.1891 2.91378 -0.154384
upperneck -0.810478 4.9936 -3.80366
head 3.27586 2.63437 -0.699918
rclavicle -5.76476e-014 0
rhumerus -67.7388 -1.72125 -76.1435
rradius 76.9508
rwrist -6.29698
rhand -29.9094 1.75003
rfingers 7.12502
rthumb -3.22995 -28.2053
lclavicle -5.76476e-014 0
lhumerus -42.7073 -28.7245 100.031
lradius 115.894
lwrist 2.90431
lhand -18.1011 -12.0599
lfingers 7.12502
lthumb 8.17273 17.762
rfemur -66.9539 -9.57021 26.0052
rtibia 73.6342
rfoot -25.0683 -12.6305
rtoes -35.5515
lfemur -15.4897 -6.68292 -25.6702
ltibia 57.3019
lfoot 9.91768 -9.45205
ltoes -1.29182
2
root 6.13225 15.2022 42.146 -151.625 0.0109932 176.82
lowerback 21.391 -1.94529 -1.43103
upperback 0.260138 -2.84017 3.04548
thorax -11.5094 -1.24985 5.11906
lowerneck -21.8324 2.75702 0.0830093
upperneck -2.57098 4.85951 -4.42302
head 3.09926 2.6432 -1.02224
rclavicle 9.54166e-015 -2.70347e-014
rhumerus -64.7872 -2.75679 -76.6389
rradius 76.3392
rwrist -5.81856
rhand -30.3684 0.860845
rfingers 7.12502
rthumb -3.67321 -29.0872
lclavicle 9.54166e-015 -2.70347e-014
lhumerus -43.2719 -26.9898 99.7159
lradius 111.515
lwrist 3.41275
lhand -18.5844 -12.0293
lfingers 7.12502
lthumb 7.70629 17.8103
rfemur -64.4712 -9.64068 26.2918
rtibia 73.4239
rfoot -25.9534 -12.6194
rtoes -35.6448
lfemur -17.6159 -5.88506 -24.768
ltibia 62.0694
lfoot 7.39576 -7.88207
ltoes -1.34783
3
root 6.09786 15.2298 41.799 -151.858 0.480315 178.033
lowerback 22.068 -1.51078 -0.547414
upperback 0.657963 -2.08836 3.39274
thorax -11.5217 -0.973883 4.79986
lowerneck -21.3741 2.62767 0.0152754
upperneck -3.82681 4.8056 -4.87981
head 2.5792 2.68859 -1.18207
rclavicle 1.90833e-014 5.1684e-015
rhumerus -61.6545 -3.24254 -77.3078
rradius 75.4162
rwrist -5.71303
rhand -30.9781 0.20728
rfingers 7.12502
rthumb -4.26197 -29.7298
lclavicle 1.90833e-014 5.1684e-015
lhumerus -43.5923 -24.5796 99.2728
lradius 106.796
lwrist 3.79566
lhand -18.776 -11.8424
lfingers 7.12502
lthumb 7.52137 18.0039
rfemur -62.3657 -8.93061 26.8966
rtibia 72.8617
rfoot -26.2432 -12.8369
rtoes -36.8631
lfemur -20.5214 -4.25476 -23.6002
ltibia 66.8833
lfoot 5.60762 -6.93999
ltoes -3.24021
4
root 6.06363 15.2872 41.4298 -152.377 0.283578 179.078
lowerback 23.0466 -1.85848 0.48056
upperback 1.10443 -1.42182 3.7168
thorax -11.6267 -0.381023 4.32545
lowerneck -21.0772 2.45754 0.0209223
upperneck -4.81525 4.66841 -5.28621
head 2.18839 2.68396 -1.34027
rclavicle -1.98785e-015 0
rhumerus -58.4871 -3.61522 -78.1596
rradius 74.4974
rwrist -6.2184
rhand -31.6066 -0.383466
rfingers 7.12502
rthumb -4.86885 -30.3075
lclavicle -1.98785e-015 0
lhumerus -43.706 -22.091 98.7271
lradius 101.625
lwrist 3.75634
lhand -21.0489 -12.8149
lfingers 7.12502
lthumb 5.32714 17.0982
rfemur -59.5785 -8.82071 27.4072
rtibia 72.1957
rfoot -27.1877 -12.3737
rtoes -36.5813
lfemur -23.2551 -3.25485 -22.2403
ltibia 71.3519
lfoot 3.23286 -6.99226
ltoes -10.0918
5
root 6.04321 15.3139 41.0624 -152.568 0.405201 180.043
lowerback 23.4625 -1.55524 1.24178
upperback 1.358 -0.727777 3.90156
thorax -11.6249 -0.0677309 3.87138
lowerneck -20.9091 2.29872 0.101899
upperneck -5.18427 4.47551 -5.45797
head 2.03291 2.61349 -1.43225
rclavicle -9.14409e-015 7.11649e-014
rhumerus -55.058 -3.36124 -79.5632
rradius 73.5822
rwrist -7.46354
rhand -32.2541 0.845084
rfingers 7.12502
rthumb -5.49407 -29.0637
lclavicle -9.14409e-015 7.11649e-014
lhumerus -43.3128 -19.4104 97.7664
lradius 95.2365
lwrist 4.7376
lhand -22.337 -13.0535
lfingers 7.12502
lthumb 4.08339 16.8871
rfemur -57.2584 -8.51005 27.8869
rtibia 71.4199
rfoot -27.6574 -12.9151
rtoes -38.9481
lfemur -27.125 -1.90122 -20.9668
ltibia 75.7651
lfoot 0.331979 -7.2438
ltoes -7.3664
6
root 6.01519 15.3147 40.7084 -152.827 0.529774 180.943
lowerback 24.0241 -1.32649 2.03345
upperback 1.65435 -0.0928179 4.12374
thorax -11.6362 0.224856 3.45768
lowerneck -20.6974 2.13174 0.0989491
upperneck -5.81578 4.31567 -5.74168
head 1.78133 2.58033 -1.54488
rclavicle 3.57812e-015 -6.91771e-014
rhumerus -51.7724 -3.0359 -80.5938
rradius 72.8098
rwrist -7.87483
rhand -32.6653 1.10955
rfingers 7.12502
rthumb -5.89108 -28.7886
lclavicle 3.57812e-015 -6.91771e-014
lhumerus -43.2546 -16.8102 96.7854
lradius 89.6209
lwrist 5.33055
lhand -23.4455 -13.4422
lfingers 7.12502
lthumb 3.01283 16.5163
rfemur -55.0191 -8.22061 28.2761
rtibia 70.7663
rfoot -28.2181 -13.0333
rtoes -40.021
lfemur -30.4909 -0.685296 -19.8441
ltibia 79.9928
lfoot -2.13341 -6.79785
ltoes -8.69812
7
root 5.9879 15.3041 40.3529 -153.025 0.726218 181.758
lowerback 24.4542 -1.05958 2.7028
upperback 1.89864 0.545791 4.30787
thorax -11.6209 0.520488 3.06294
lowerneck -20.5073 1.96208 0.0696284
upperneck -6.28857 4.14438 -5.98066
head 1.58734 2.53264 -1.63716
rclavicle 1.98785e-014 -1.11319e-014
rhumerus -48.5129 -2.33981 -81.6406
rradius 72.2035
rwrist -8.08837
rhand -32.9291 1.46602
rfingers 7.12502
rthumb -6.14577 -28.4248
lclavicle 1.98785e-014 -1.11319e-014
lhumerus -43.2005 -14.1857 95.6261
lradius 83.844
lwrist 5.95436
lhand -24.6103 -13.9755
lfingers 7.12502
lthumb 1.8879 15.9959
rfemur -52.8521 -7.93295 28.5667
rtibia 70.1378
rfoot -28.8316 -13.1927
rtoes -41.0857
lfemur -34.0742 0.549535 -18.8383
ltibia 84.0176
lfoot -4.55815 -6.3534
ltoes -9.72722
